HIERARCHY
ROOT Pelvis
{
	OFFSET 0.000000 0.000000 0.000000
	CHANNELS 6 Xposition Yposition Zposition Xrotation Yrotation Zrotation
	JOINT LeftUpLeg_virtual
	{
		OFFSET 0.000000 0.000000 0.000000
		CHANNELS 3 Xrotation Yrotation Zrotation
		JOINT LeftUpLeg
		{
			OFFSET 18.735201 -5.666702 -4.541200
			CHANNELS 3 Xrotation Yrotation Zrotation
			JOINT LeftLeg
			{
				OFFSET -0.021200 -31.938179 0.493100
				CHANNELS 3 Xrotation Yrotation Zrotation
				JOINT LeftFoot
				{
					OFFSET 0.021200 -31.938179 -4.336299
					CHANNELS 3 Xrotation Yrotation Zrotation
					JOINT LeftToeBase
					{
						OFFSET 0.943001 -26.722000 15.023500
						CHANNELS 3 Xrotation Yrotation Zrotation
						End Site
						{
							OFFSET 0 0 0
						}
					}
				}
			}
		}
	}
	JOINT RightUpLeg_virtual
	{
		OFFSET 0.000000 0.000000 0.000000
		CHANNELS 3 Xrotation Yrotation Zrotation
		JOINT RightUpLeg
		{
			OFFSET -18.735201 -5.666702 -4.541200
			CHANNELS 3 Xrotation Yrotation Zrotation
			JOINT RightLeg
			{
				OFFSET 0.018946 -31.938133 0.493100
				CHANNELS 3 Xrotation Yrotation Zrotation
				JOINT RightFoot
				{
					OFFSET -0.018946 -31.938126 -4.336299
					CHANNELS 3 Xrotation Yrotation Zrotation
					JOINT RightToeBase
					{
						OFFSET -0.943001 -26.722004 15.023500
						CHANNELS 3 Xrotation Yrotation Zrotation
						End Site
						{
							OFFSET 0 0 0
						}
					}
				}
			}
		}
	}
	JOINT Hips_virtual
	{
		OFFSET 0.000000 0.000000 0.000000
		CHANNELS 3 Xrotation Yrotation Zrotation
		JOINT Hips
		{
			OFFSET -0.000000 -0.000000 -0.000000
			CHANNELS 3 Xrotation Yrotation Zrotation
			JOINT Spine
			{
				OFFSET 0.000000 10.199997 -0.299500
				CHANNELS 3 Xrotation Yrotation Zrotation
				JOINT Spine1
				{
					OFFSET 0.000000 11.900002 -1.516600
					CHANNELS 3 Xrotation Yrotation Zrotation
					JOINT Spine2
					{
						OFFSET 0.000000 13.600006 -2.842500
						CHANNELS 3 Xrotation Yrotation Zrotation
						JOINT Neck_virtual
						{
							OFFSET 0.000000 0.000000 0.000000
							CHANNELS 3 Xrotation Yrotation Zrotation
							JOINT Neck
							{
								OFFSET 0.000000 9.624100 -2.890100
								CHANNELS 3 Xrotation Yrotation Zrotation
								JOINT Head
								{
									OFFSET 0.000000 14.068802 -1.351900
									CHANNELS 3 Xrotation Yrotation Zrotation
									End Site
									{
										OFFSET 0 0 0
									}
								}
							}
						}
						JOINT LeftShoulder_virtual
						{
							OFFSET 0.000000 0.000000 0.000000
							CHANNELS 3 Xrotation Yrotation Zrotation
							JOINT LeftShoulder
							{
								OFFSET 15.263000 10.923401 -0.547700
								CHANNELS 3 Xrotation Yrotation Zrotation
								JOINT LeftArm
								{
									OFFSET 25.438599 -2.830597 -13.032500
									CHANNELS 3 Xrotation Yrotation Zrotation
									JOINT LeftForeArm
									{
										OFFSET 29.960503 0.000000 0.000000
										CHANNELS 3 Xrotation Yrotation Zrotation
										JOINT LeftHand
										{
											OFFSET 27.849251 0.000000 0.000000
											CHANNELS 3 Xrotation Yrotation Zrotation
											End Site
											{
												OFFSET 0 0 0
											}
										}
									}
								}
							}
						}
						JOINT RightShoulder_virtual
						{
							OFFSET 0.000000 0.000000 0.000000
							CHANNELS 3 Xrotation Yrotation Zrotation
							JOINT RightShoulder
							{
								OFFSET -15.263000 10.923401 -0.547700
								CHANNELS 3 Xrotation Yrotation Zrotation
								JOINT RightArm
								{
									OFFSET -25.438599 -2.830597 -13.032500
									CHANNELS 3 Xrotation Yrotation Zrotation
									JOINT RightForeArm
									{
										OFFSET -29.960503 0.000000 0.000000
										CHANNELS 3 Xrotation Yrotation Zrotation
										JOINT RightHand
										{
											OFFSET -27.849251 0.000000 0.000000
											CHANNELS 3 Xrotation Yrotation Zrotation
											End Site
											{
												OFFSET 0 0 0
											}
										}
									}
								}
							}
						}
					}
				}
			}
		}
	}
}
MOTION
Frames: 11
Frame Time: 0.03333333
66.632675 90.289352 157.138672 0.000000 0.000000 0.000000 -9.280676 46.782312 12.422109 -25.531698 14.086028 -15.263769 34.702914 -8.651359 -2.614103 23.935609 6.558093 15.648833 0.000000 0.000000 0.000000 -8.219485 47.327730 11.012010 -31.021637 12.293003 2.550812 50.696167 -7.774030 -0.278359 41.210332 -8.257981 0.220770 0.000000 0.000000 0.000000 -8.696684 46.459944 11.900956 0.803441 0.098574 -1.297028 4.284949 -1.673147 -6.020911 -1.580944 -0.679907 0.302471 0.000000 0.000000 0.000000 -2.351492 -0.989481 0.645970 -1.320463 0.142792 0.249271 0.000000 0.000000 0.000000 -2.482097 -0.791015 0.528922 1.534767 7.348336 -6.187145 4.090608 -5.008384 -69.051573 11.892896 -25.065744 4.124299 0.000000 0.000000 0.000000 -1.931617 -1.026156 0.772455 1.041346 6.201939 2.307577 1.041261 2.267520 76.838809 11.435431 14.056427 -3.594314 0.000000 0.000000 0.000000 
68.501526 91.099213 158.738342 0.000000 0.000000 0.000000 -9.164989 49.196213 11.639721 -23.602832 12.150169 -15.834467 35.640436 -10.812106 -1.253763 20.760430 7.284735 18.165284 0.000000 0.000000 0.000000 -7.722075 50.036842 10.032385 -35.861796 12.947943 2.872260 48.130164 -7.636011 -1.051541 39.697889 -8.064222 -1.332497 0.000000 0.000000 0.000000 -8.178449 48.525823 11.081158 0.765195 -0.451314 -1.247402 4.459316 -1.971965 -5.457661 -1.500238 -1.028874 0.533111 0.000000 0.000000 0.000000 -2.388381 -1.334100 0.900848 -1.346314 0.066432 0.417727 0.000000 0.000000 0.000000 -2.511239 -1.157955 0.767368 1.483461 6.700483 -5.472683 1.932538 -7.344251 -68.602024 11.728694 -23.813299 4.059072 0.000000 0.000000 0.000000 -2.003789 -1.373102 1.023052 0.990098 5.724683 3.251013 1.583324 0.911257 76.526136 11.319221 13.877443 -3.583739 0.000000 0.000000 0.000000 
70.624504 91.809990 160.460114 0.000000 0.000000 0.000000 -8.837833 52.156786 10.946184 -21.147048 10.803156 -15.665384 35.798691 -13.843369 -0.356941 17.594480 6.438660 19.685611 0.000000 0.000000 0.000000 -6.955197 53.121875 8.962438 -39.065848 12.662145 1.841766 42.823725 -5.713149 -1.465959 41.596644 -5.225626 -0.218998 0.000000 0.000000 0.000000 -7.562602 51.011688 10.224967 0.656666 -0.927116 -1.075311 4.575227 -2.264762 -5.081745 -1.362744 -1.376427 0.738324 0.000000 0.000000 0.000000 -2.301289 -1.678349 1.113865 -1.370770 -0.019796 0.625246 0.000000 0.000000 0.000000 -2.460102 -1.535224 0.961980 1.373721 6.010426 -4.686198 -0.254310 -9.649856 -68.087328 11.681395 -23.006714 4.064649 0.000000 0.000000 0.000000 -1.965532 -1.718330 1.247761 0.947569 5.127784 4.378398 2.093578 -0.571482 75.965214 11.250319 13.462435 -3.603236 0.000000 0.000000 0.000000 
72.924232 92.306297 162.326202 0.000000 0.000000 0.000000 -8.445398 55.449620 10.589477 -18.661846 10.876893 -14.596317 35.129292 -17.205412 -0.518889 16.037132 4.476964 19.978747 0.000000 0.000000 0.000000 -6.185057 56.358975 8.134885 -40.765673 10.880331 -0.325744 36.325641 -3.362179 -1.009918 44.686065 -2.076573 1.470076 0.000000 0.000000 0.000000 -6.785267 53.632537 9.474525 0.432685 -0.923988 -0.957526 4.689106 -2.590389 -5.152387 -1.186161 -1.725308 0.928038 0.000000 0.000000 0.000000 -2.119888 -2.025370 1.280393 -1.412583 -0.118729 0.849082 0.000000 0.000000 0.000000 -2.341572 -1.914962 1.130440 1.235640 5.190257 -3.918395 -2.153976 -11.531263 -67.481647 11.856875 -23.286084 4.229638 0.000000 0.000000 0.000000 -1.823311 -2.064396 1.457476 0.921030 4.401942 5.634320 2.427553 -1.897484 75.195725 11.256709 12.866587 -3.694303 0.000000 0.000000 0.000000 
75.355804 92.507477 164.261490 0.000000 0.000000 0.000000 -7.805985 58.291976 10.381747 -16.688707 11.965262 -12.908237 34.698860 -20.249875 -1.367934 16.457288 2.853772 20.224318 0.000000 0.000000 0.000000 -5.598241 59.338293 7.835132 -40.653914 7.904446 -2.868043 29.372552 -1.931688 0.026550 44.854412 -0.973254 2.183547 0.000000 0.000000 0.000000 -6.010741 56.190860 8.988684 0.237024 -0.777553 -0.789744 4.774800 -2.980416 -5.746348 -1.020762 -2.070942 1.132495 0.000000 0.000000 0.000000 -1.868686 -2.366478 1.441760 -1.477500 -0.241816 1.058065 0.000000 0.000000 0.000000 -2.119800 -2.287308 1.321852 1.106088 4.215887 -3.243084 -3.523561 -12.802705 -66.869020 12.250872 -24.705252 4.538963 0.000000 0.000000 0.000000 -1.599640 -2.391874 1.687728 0.926618 3.604109 6.883720 2.635607 -2.846653 74.245072 11.386748 12.269045 -3.882300 0.000000 0.000000 0.000000 
77.894188 92.354874 166.460083 0.000000 0.000000 0.000000 -6.865330 60.365909 10.246459 -14.572540 13.015206 -11.356192 34.370451 -22.797922 -2.308699 17.317559 1.673012 20.869969 0.000000 0.000000 0.000000 -5.053827 61.509344 7.951021 -38.955721 4.678196 -5.175193 22.214854 -1.555619 1.091115 41.381237 -1.664074 2.524098 0.000000 0.000000 0.000000 -5.526632 58.386212 8.982352 0.251447 -0.453539 -0.739661 4.741479 -3.432075 -6.744496 -0.891707 -2.390666 1.401743 0.000000 0.000000 0.000000 -1.589876 -2.675825 1.656984 -1.556803 -0.381270 1.228106 0.000000 0.000000 0.000000 -1.834124 -2.618592 1.586027 1.025735 3.156278 -2.733215 -4.408683 -13.414801 -66.512485 12.739792 -26.466438 4.885787 0.000000 0.000000 0.000000 -1.314562 -2.689705 1.969097 0.965931 2.787509 8.093683 2.785812 -3.353258 73.160390 11.640584 11.860326 -4.160331 0.000000 0.000000 0.000000 
80.434586 91.900070 168.821518 0.000000 0.000000 0.000000 -6.017255 61.833723 10.301021 -11.393848 13.177866 -10.425913 33.118952 -25.115951 -3.023090 16.334554 0.111070 21.723512 0.000000 0.000000 0.000000 -4.909870 62.925618 8.519833 -36.924088 2.462144 -6.884116 15.888448 -1.026285 1.732565 38.204352 -1.952587 3.930258 0.000000 0.000000 0.000000 -5.538921 60.034023 9.434457 0.236653 0.060356 -0.731913 4.531108 -3.881701 -7.891457 -0.769728 -2.643341 1.752632 0.000000 0.000000 0.000000 -1.321409 -2.931541 1.959080 -1.637518 -0.528561 1.329092 0.000000 0.000000 0.000000 -1.499089 -2.859969 1.943262 1.011474 2.150733 -2.459196 -5.233448 -13.310405 -66.598811 13.182795 -27.803393 5.148032 0.000000 0.000000 0.000000 -1.020704 -2.932880 2.313534 1.014217 2.020974 9.245457 2.960653 -3.469762 72.078119 11.944185 11.662563 -4.488936 0.000000 0.000000 0.000000 
82.955719 91.247299 171.431213 0.000000 0.000000 0.000000 -5.567303 62.879275 10.417281 -7.548092 12.582012 -9.762643 31.538282 -26.834432 -3.424448 13.361480 -1.244580 22.897366 0.000000 0.000000 0.000000 -5.158045 63.781980 9.206415 -35.876846 1.513055 -8.026854 11.990815 0.258058 2.244521 38.304421 -0.562350 6.870351 0.000000 0.000000 0.000000 -6.233252 61.401891 10.238424 0.228129 0.602900 -0.584835 4.071436 -4.249580 -8.870336 -0.663652 -2.788530 2.161410 0.000000 0.000000 0.000000 -1.059817 -3.091827 2.338718 -1.692718 -0.666511 1.346475 0.000000 0.000000 0.000000 -1.138217 -2.982754 2.352467 1.038010 1.363847 -2.377805 -6.201680 -12.674113 -67.214935 13.481434 -28.308267 5.244647 0.000000 0.000000 0.000000 -0.719879 -3.079547 2.695277 1.043149 1.334492 10.204049 3.191306 -3.346371 71.273666 12.226697 11.484796 -4.828940 0.000000 0.000000 0.000000 
85.555885 90.466217 174.493179 0.000000 0.000000 0.000000 -5.804625 63.913871 10.565176 -4.134570 12.095924 -8.912473 31.584502 -27.293216 -3.315292 9.448653 -1.357136 24.686995 0.000000 0.000000 0.000000 -5.714972 64.433710 9.506247 -36.493537 1.303071 -8.812776 11.648903 1.689539 2.790002 41.541538 1.758375 9.839957 0.000000 0.000000 0.000000 -7.459770 62.718267 11.046758 0.315112 0.811629 -0.519623 3.406163 -4.472329 -9.373453 -0.523050 -2.823795 2.580188 0.000000 0.000000 0.000000 -0.792546 -3.133841 2.736374 -1.712190 -0.770868 1.284621 0.000000 0.000000 0.000000 -0.804094 -2.981403 2.743349 1.092855 0.952749 -2.436348 -7.128320 -11.747608 -68.234423 13.652216 -28.034993 5.183661 0.000000 0.000000 0.000000 -0.406347 -3.118729 3.066946 1.025326 0.758999 10.885409 3.525086 -3.144525 71.032424 12.383613 11.243057 -5.137057 0.000000 0.000000 0.000000 
88.164421 89.717979 177.783722 0.000000 0.000000 0.000000 -6.830787 65.063610 10.676795 -1.839660 11.731285 -7.612989 33.279742 -26.660679 -2.855128 5.614176 -0.592762 26.414961 0.000000 0.000000 0.000000 -6.994517 65.270299 9.642875 -38.423823 1.539043 -8.687497 14.865121 2.726040 2.872803 45.407521 3.142970 10.786841 0.000000 0.000000 0.000000 -8.989083 64.168999 11.531405 0.466034 0.722726 -0.602204 2.673297 -4.549437 -9.195650 -0.336963 -2.770896 2.925396 0.000000 0.000000 0.000000 -0.485302 -3.071079 3.067934 -1.686790 -0.826980 1.162378 0.000000 0.000000 0.000000 -0.513734 -2.875086 3.032350 1.152686 1.003901 -2.598782 -7.586639 -10.824593 -69.387072 13.738132 -27.339958 4.995572 0.000000 0.000000 0.000000 -0.109796 -3.049725 3.360544 0.964182 0.327274 11.181987 4.039507 -2.970877 71.454222 12.357471 10.928209 -5.385425 0.000000 0.000000 0.000000 
90.794876 89.086517 181.046524 0.000000 0.000000 0.000000 -8.016277 66.107892 10.232440 -0.879478 10.727995 -5.856036 35.152443 -25.572560 -2.549249 4.503722 0.594470 26.480182 0.000000 0.000000 0.000000 -8.391940 66.481346 9.350751 -40.372056 1.843291 -7.168594 20.131349 2.739506 2.194860 46.219036 2.210289 9.366653 0.000000 0.000000 0.000000 -10.535428 65.775528 11.461051 0.604963 0.247368 -0.749965 1.992857 -4.497672 -8.222636 -0.133293 -2.670175 3.161692 0.000000 0.000000 0.000000 -0.174845 -2.925478 3.278638 -1.627359 -0.824788 1.013406 0.000000 0.000000 0.000000 -0.290186 -2.705722 3.173689 1.211700 1.507359 -2.835560 -7.212255 -10.146804 -70.463018 13.742255 -26.357297 4.689172 0.000000 0.000000 0.000000 0.159271 -2.914639 3.531967 0.911482 0.145436 10.990833 4.733888 -2.895799 72.404793 12.147293 10.637912 -5.540341 0.000000 0.000000 0.000000 
